<svg width="47" height="30" viewBox="0 0 47 30" fill="none" xmlns="http://www.w3.org/2000/svg">
<path d="M0 11.3367C0 11.397 0 11.4573 0 11.517C0.0160866 11.6153 0.0430908 11.7129 0.0459633 11.8118C0.069519 12.5551 0.16087 13.29 0.280373 14.0219C0.62624 16.1501 1.35532 18.0925 2.79222 19.6901C3.09443 20.0259 3.37538 20.378 3.61496 20.7687C3.78157 21.0406 3.77697 21.2703 3.59887 21.5398C3.19555 22.1493 2.82325 22.7811 2.53311 23.4611C2.31824 23.9651 2.10853 24.4721 2.02063 25.0208C1.89596 25.7967 2.14645 26.048 2.87898 25.8919C3.65804 25.7261 4.36069 25.3626 5.04438 24.9562C5.89584 24.4492 6.64848 23.7957 7.42007 23.1705C7.79984 22.8631 8.20661 22.5833 8.68347 22.4929C9.15918 22.4025 9.63432 22.4899 10.098 22.6412C10.3416 22.7208 10.5191 22.8438 10.5967 23.1211C10.6438 23.2899 10.7587 23.437 10.838 23.5962C10.9667 23.8542 11.1551 23.9452 11.4309 23.8753C11.6595 23.8174 11.883 23.8675 12.1031 23.9597C12.4104 24.0881 12.6713 24.2889 12.9275 24.4987C13.8278 25.236 14.8103 25.8358 15.8145 26.3995C16.8056 26.956 17.8788 27.2996 18.9268 27.7084C19.7869 28.0442 20.6372 28.4089 21.5151 28.6929C22.4343 28.9907 23.3788 29.0063 24.3285 28.9708C24.5089 28.9641 24.6893 28.9509 24.8634 29.0377C25.2346 29.2222 25.6166 29.3843 25.9838 29.5767C26.5807 29.8896 27.2219 29.9812 27.8734 29.9993C28.4847 30.0162 28.8329 29.7376 29.0041 29.1185C29.0558 28.9322 29.1448 28.8592 29.3218 28.843C29.7406 28.8032 30.1572 28.7417 30.576 28.6995C31.7067 28.5855 32.8201 28.3215 33.9686 28.3492C34.8752 28.3709 35.7847 28.3112 36.6861 28.181C37.7174 28.0321 38.759 27.9441 39.7438 27.5438C40.6159 27.1893 41.3433 26.622 41.8586 25.8159C42.3039 25.1202 42.7164 24.3877 42.829 23.5256C42.8497 23.3689 42.8922 23.2664 43.0898 23.3894C43.3823 23.5714 43.5719 23.4617 43.6581 23.1108C43.6851 23.0023 43.673 22.8793 43.7712 22.7461C43.8356 23.0186 43.8884 23.2507 43.9459 23.4822C44.0982 24.0941 44.2544 24.7042 44.5394 25.2673C44.6147 25.4168 44.6893 25.5766 44.8703 25.6188C45.4449 25.7526 45.9246 25.3789 45.9614 24.7675C45.9677 24.6578 45.97 24.5469 45.9642 24.4366C45.9177 23.5407 45.7511 22.6677 45.5138 21.808C45.4023 21.4035 45.3989 21.4047 45.7649 21.2552C46.5474 20.9351 47.0317 20.1718 46.9984 19.3097C46.9651 18.4404 46.4101 17.6826 45.6103 17.4451C44.8106 17.2081 44.1418 17.4523 43.596 18.0962C43.3737 18.3584 43.295 18.3656 43.0628 18.1251C42.9267 17.9846 42.8009 17.8327 42.6704 17.6868C42.594 17.6012 42.5067 17.5355 42.3935 17.6036C42.1763 17.7332 42.0712 17.6018 41.9988 17.4167C41.8753 17.1014 41.769 16.7789 41.6415 16.4654C41.5208 16.1688 41.511 15.8842 41.576 15.5617C41.9126 13.8917 41.5938 12.3652 40.5315 11.0594C40.2172 10.673 40.0075 10.2419 39.8501 9.79339C39.3399 8.34106 38.5195 7.14255 37.3491 6.20509C36.4213 5.46174 35.4101 4.88781 34.2771 4.56587C32.885 4.17039 31.4688 3.963 30.0256 3.98229C29.7894 3.98531 29.605 3.92562 29.4493 3.72607C28.4709 2.47149 27.2449 1.54367 25.8918 0.785258C24.837 0.194442 23.7069 -0.116037 22.5222 0.0401067C20.536 0.302356 18.7705 1.11443 17.344 2.62945C16.7361 3.27512 16.3052 4.04499 16.1271 4.93664C16.0243 5.4527 15.791 5.86868 15.4526 6.23402C15.2664 6.43478 15.0613 6.61685 14.8643 6.80675C14.7655 6.9014 14.6362 6.97918 14.5937 7.11301C14.4052 7.70925 14.1409 8.27535 14.1007 8.92525C14.0404 9.90009 14.0444 10.8677 14.1915 11.8335C14.2087 11.9487 14.1995 12.0355 14.0927 12.1175C13.5963 12.4973 13.2682 13.0224 13.0097 13.5927C12.9143 13.8031 12.8316 14.0207 12.6713 14.1787C12.0743 14.7659 11.5642 15.4242 11.1465 16.1621C11.0287 16.3707 10.85 16.4895 10.6242 16.5516C10.1841 16.6728 10.0497 16.8916 10.1284 17.3679C10.1617 17.5698 10.0922 17.6633 9.91526 17.72C9.4361 17.8737 8.98567 17.779 8.56052 17.5397C7.85786 17.1436 7.30746 16.5552 6.79671 15.9288C6.10727 15.083 5.44598 14.2124 4.7554 13.3678C3.87349 12.2893 2.88932 11.3271 1.72819 10.5819C1.37083 10.3522 1.01462 10.1123 0.579128 10.0635C0.332653 10.0357 0.192474 10.1268 0.113762 10.3872C0.0195389 10.6995 0.0896263 11.0269 0 11.3367Z" fill="url(#paint0_linear_2148_2200)"/>
<defs>
<linearGradient id="paint0_linear_2148_2200" x1="23.4327" y1="-6.92308" x2="23.4327" y2="35.1923" gradientUnits="userSpaceOnUse">
<stop stopColor="#83D2FF"/>
<stop offset="0.409375" stopColor="#1C98DD"/>
<stop offset="0.742708" stopColor="#1C52DD"/>
<stop offset="1" stopColor="#055CBB"/>
</linearGradient>
</defs>
</svg>
