<svg width={30} height={20} viewBox="0 0 30 20" fill="none" xmlns="http://www.w3.org/2000/svg">
  <path d="M30 7.55783C30 7.59802 30 7.63821 30 7.678C29.9897 7.74351 29.9725 7.80862 29.9707 7.87454C29.9556 8.3701 29.8973 8.86003 29.821 9.34796C29.6003 10.7667 29.1349 12.0617 28.2177 13.1268C28.0248 13.3506 27.8455 13.5854 27.6926 13.8458C27.5862 14.0271 27.5892 14.1802 27.7029 14.3598C27.9603 14.7662 28.1979 15.1874 28.3831 15.6407C28.5203 15.9767 28.6541 16.3148 28.7102 16.6805C28.7898 17.1978 28.6299 17.3654 28.1624 17.2613C27.6651 17.1507 27.2166 16.9084 26.7802 16.6375C26.2367 16.2995 25.7563 15.8638 25.2638 15.447C25.0214 15.242 24.7617 15.0556 24.4574 14.9953C24.1537 14.935 23.8504 14.9933 23.5545 15.0941C23.399 15.1472 23.2857 15.2292 23.2362 15.4141C23.2061 15.5266 23.1328 15.6247 23.0822 15.7308C23 15.9028 22.8797 15.9635 22.7037 15.9169C22.5577 15.8783 22.4151 15.9116 22.2746 15.9731C22.0784 16.0587 21.9119 16.1926 21.7484 16.3324C21.1737 16.824 20.5466 17.2239 19.9056 17.5997C19.273 17.9706 18.588 18.1997 17.9191 18.4722C17.3701 18.6961 16.8273 18.9393 16.267 19.1286C15.6802 19.3271 15.0773 19.3376 14.4712 19.3139C14.356 19.3094 14.2409 19.3006 14.1297 19.3585C13.8928 19.4814 13.649 19.5896 13.4146 19.7178C13.0336 19.9264 12.6243 19.9875 12.2085 19.9995C11.8183 20.0108 11.5961 19.8251 11.4868 19.4123C11.4538 19.2881 11.3969 19.2395 11.284 19.2286C11.0166 19.2021 10.7508 19.1611 10.4834 19.133C9.76171 19.057 9.051 18.881 8.31792 18.8995C7.73923 18.9139 7.15871 18.8742 6.58333 18.7873C5.92506 18.6881 5.26019 18.6294 4.63163 18.3625C4.07495 18.1262 3.61068 17.748 3.28173 17.2106C2.99752 16.7468 2.73421 16.2585 2.66233 15.6838C2.64913 15.5793 2.62199 15.5109 2.49584 15.5929C2.30918 15.7143 2.18816 15.6411 2.13315 15.4072C2.11592 15.3349 2.12362 15.2529 2.06091 15.1641C2.01984 15.3457 1.9861 15.5005 1.94943 15.6548C1.85224 16.0628 1.7525 16.4695 1.5706 16.8449C1.52256 16.9446 1.47489 17.0511 1.35937 17.0792C0.992648 17.1684 0.686435 16.9192 0.662965 16.5117C0.658931 16.4385 0.657464 16.3646 0.661131 16.291C0.690836 15.6938 0.797185 15.1118 0.948641 14.5387C1.01979 14.269 1.02199 14.2698 0.788384 14.1701C0.288908 13.9567 -0.0202383 13.4479 0.00103162 12.8732C0.0223015 12.2936 0.376555 11.7884 0.887032 11.63C1.39751 11.4721 1.82437 11.6349 2.17276 12.0641C2.31468 12.2389 2.36492 12.2438 2.51308 12.0834C2.59999 11.9897 2.6803 11.8885 2.76355 11.7912C2.81232 11.7341 2.86806 11.6903 2.94031 11.7357C3.07893 11.8221 3.14604 11.7345 3.19225 11.6111C3.27109 11.4009 3.33894 11.1859 3.42035 10.9769C3.49736 10.7792 3.50359 10.5895 3.46215 10.3744C3.24726 9.26114 3.45079 8.24349 4.12886 7.37295C4.32945 7.11532 4.46331 6.82795 4.56379 6.52892C4.88944 5.56071 5.41312 4.7617 6.16013 4.13672C6.75239 3.64116 7.39782 3.25854 8.12099 3.04392C9.00956 2.78026 9.91353 2.642 10.8347 2.65486C10.9855 2.65687 11.1032 2.61708 11.2026 2.48405C11.8271 1.64766 12.6097 1.02911 13.4733 0.523505C14.1466 0.129628 14.8679 -0.0773583 15.6241 0.0267378C16.8919 0.201571 18.0188 0.742951 18.9294 1.75296C19.3174 2.18342 19.5924 2.69666 19.7061 3.29109C19.7718 3.63513 19.9206 3.91246 20.1366 4.15602C20.2555 4.28985 20.3864 4.41123 20.5122 4.53784C20.5752 4.60094 20.6578 4.65278 20.6849 4.74201C20.8052 5.1395 20.9739 5.5169 20.9995 5.95017C21.038 6.60006 21.0355 7.24514 20.9416 7.88901C20.9306 7.96577 20.9365 8.02365 21.0047 8.07831C21.3215 8.33151 21.5309 8.68158 21.6959 9.06179C21.7568 9.20206 21.8096 9.34715 21.9119 9.45246C22.293 9.84392 22.6186 10.2828 22.8852 10.7748C22.9604 10.9138 23.0745 10.993 23.2186 11.0344C23.4995 11.1152 23.5853 11.2611 23.5351 11.5786C23.5138 11.7132 23.5582 11.7755 23.6711 11.8133C23.977 11.9158 24.2645 11.8527 24.5358 11.6931C24.9843 11.4291 25.3357 11.0368 25.6617 10.6192C26.1017 10.0553 26.5238 9.47496 26.9646 8.91188C27.5276 8.19285 28.1558 7.5514 28.8969 7.05463C29.125 6.9015 29.3524 6.74154 29.6303 6.70898C29.7877 6.69049 29.8771 6.75118 29.9274 6.92481C29.9875 7.133 29.9428 7.35124 30 7.55783Z" fill="url(#paint0_linear_3196_1568)" />
  <defs>
    <linearGradient id="paint0_linear_3196_1568" x1="15.0429" y1="-4.61538" x2="15.0429" y2="23.4615" gradientUnits="userSpaceOnUse">
      <stop stopColor="#83D2FF" />
      <stop offset="0.409375" stopColor="#1C98DD" />
      <stop offset="0.742708" stopColor="#1C52DD" />
      <stop offset={1} stopColor="#055CBB" />
    </linearGradient>
  </defs>
</svg>
