<svg width="352" height="183" viewBox="0 0 352 183" fill="none" xmlns="http://www.w3.org/2000/svg">
<path d="M1 11C1 5.47714 5.47715 1 11 1L341 1C346.523 1 351 5.47715 351 11V125.104C351 130.627 346.529 135.103 341.007 135.152C312.395 135.408 276.74 136.598 253.664 136.598C244.379 136.598 202.558 173.647 186.644 181.534C183.889 182.9 181.841 181.205 182.895 178.318C187.239 166.421 203.892 136.972 196.639 136.598C118.617 135.153 108.194 135.106 11.0082 135.104C5.48535 135.104 1 130.627 1 125.104V11Z" fill="white" stroke="#1C98DD" stroke-width="1.5" stroke-linecap="round" stroke-linejoin="round" stroke-dasharray="6 6"/>
</svg>
